<mxfile host="app.diagrams.net" modified="2023-05-10T08:39:14.963Z" agent="Mozilla/5.0 (Windows NT 10.0; Win64; x64) AppleWebKit/537.36 (KHTML, like Gecko) Chrome/112.0.0.0 Safari/537.36" version="21.2.9" etag="UfoYDvpzfXr3LNigFxRQ" type="github">
  <diagram name="Page-1" id="uU9CNMphT5u3GuBtaNio">
    <mxGraphModel>
      <root>
        <mxCell id="0" />
        <mxCell id="1" parent="0" />
      </root>
    </mxGraphModel>
  </diagram>
</mxfile>
